<?xml version="1.0" standalone="no"?>
<!DOCTYPE svg PUBLIC "-//W3C//DTD SVG 20010904//EN"
 "http://www.w3.org/TR/2001/REC-SVG-20010904/DTD/svg10.dtd">
<svg version="1.0" xmlns="http://www.w3.org/2000/svg"
 width="438.000000pt" height="203.000000pt" viewBox="0 0 438.000000 203.000000"
 preserveAspectRatio="xMidYMid meet">

<g transform="translate(0.000000,203.000000) scale(0.100000,-0.100000)"
fill="#000000" stroke="none">
<path d="M0 1015 l0 -1015 2190 0 2190 0 0 1015 0 1015 -2190 0 -2190 0 0
-1015z m3300 96 c0 -26 -15 -34 -39 -21 -26 14 -16 40 15 40 17 0 24 -6 24
-19z m-2800 -111 l0 -120 -25 0 -25 0 0 120 0 120 25 0 25 0 0 -120z m310 80
c0 -43 2 -45 30 -30 25 13 62 4 89 -21 28 -26 28 -87 1 -122 -19 -24 -26 -26
-95 -25 l-75 1 0 118 0 119 25 0 c23 0 25 -4 25 -40z m430 -80 l0 -120 -25 0
-25 0 0 120 0 120 25 0 25 0 0 -120z m-869 94 c17 -8 28 -21 26 -27 -4 -12
-18 -12 -72 -2 -43 9 -85 -25 -85 -69 0 -56 51 -90 104 -70 10 4 16 18 16 40
0 27 4 34 20 34 17 0 20 -7 20 -49 0 -45 -2 -50 -30 -61 -51 -21 -119 -7 -153
30 -26 29 -29 39 -25 82 5 50 27 84 63 99 32 13 84 10 116 -7z m1069 -99 l0
-115 -25 0 -25 0 0 115 0 115 25 0 25 0 0 -115z m1304 86 c32 -30 34 -69 5
-105 l-21 -26 22 -35 22 -35 -26 0 c-17 0 -33 10 -48 30 -15 21 -30 30 -50 30
-24 0 -28 -4 -28 -30 0 -25 -4 -30 -25 -30 l-25 0 0 116 0 116 74 -4 c62 -3
79 -7 100 -27z m836 -11 c0 -13 7 -20 20 -20 13 0 20 -7 20 -20 0 -13 -7 -20
-20 -20 -17 0 -20 -7 -20 -44 0 -39 3 -45 22 -48 13 -2 24 -11 26 -20 3 -14
-4 -18 -32 -18 -48 0 -66 21 -66 81 0 37 -4 49 -15 49 -8 0 -15 9 -15 20 0 11
7 20 15 20 8 0 15 9 15 20 0 15 7 20 25 20 18 0 25 -5 25 -20z m-2905 -26 c60
-28 69 -103 18 -144 -30 -24 -73 -26 -112 -5 -76 39 -41 160 47 164 8 1 29 -6
47 -15z m443 -10 c19 -13 22 -23 22 -84 0 -63 -2 -70 -20 -70 -11 0 -20 5 -20
10 0 7 -6 7 -19 0 -44 -23 -101 -2 -101 38 0 32 27 52 71 52 33 0 40 3 37 18
-3 17 -40 22 -78 11 -10 -2 -15 3 -15 16 0 35 73 41 123 9z m504 12 c24 -13
32 -13 57 0 26 13 34 13 64 1 37 -16 47 -42 47 -123 0 -40 -2 -44 -25 -44 -23
0 -25 3 -25 49 0 64 -7 81 -34 81 -34 0 -46 -20 -46 -77 0 -50 -2 -53 -25 -53
-23 0 -24 4 -27 63 -3 62 -3 62 -33 62 -30 0 -30 0 -33 -62 -3 -59 -4 -63 -27
-63 -25 0 -25 1 -25 85 l0 85 40 -2 c22 -1 43 2 47 5 9 10 14 9 45 -7z m317 3
c41 -15 51 -35 51 -108 0 -58 -1 -61 -25 -61 -14 0 -25 5 -25 12 0 9 -3 9 -12
0 -18 -18 -66 -14 -88 8 -36 36 -2 80 62 80 40 0 48 10 24 29 -9 8 -28 10 -49
6 -26 -5 -36 -3 -40 9 -5 11 3 18 26 25 43 12 40 12 76 0z m244 0 l37 1 0 -80
c0 -113 -24 -152 -95 -152 -24 -1 -85 14 -85 20 1 24 17 32 46 22 42 -15 84 2
84 32 0 17 -3 19 -12 10 -19 -19 -73 -14 -102 9 -61 48 -10 162 64 142 14 -3
42 -6 63 -4z m202 -3 c36 -15 55 -42 55 -75 0 -19 -6 -21 -66 -21 -48 0 -65
-3 -61 -12 2 -8 22 -13 50 -13 52 0 65 -8 47 -30 -25 -31 -129 -9 -144 30 -18
48 5 108 48 125 29 12 32 12 71 -4z m573 -22 c12 -14 22 -36 22 -50 0 -23 -3
-24 -65 -24 -55 0 -63 -2 -58 -16 5 -13 16 -15 49 -11 49 5 73 -9 46 -29 -35
-27 -110 -13 -139 25 -29 38 -6 112 41 131 32 13 78 2 104 -26z m165 22 c15
-8 27 -11 27 -5 0 5 11 9 25 9 24 0 25 -2 25 -75 0 -99 -17 -141 -64 -153 -31
-9 -99 -2 -112 11 -2 2 -2 11 1 20 5 12 13 13 38 6 49 -14 86 4 87 40 0 12 -3
12 -12 3 -19 -19 -73 -14 -102 9 -44 35 -34 108 19 137 26 15 35 15 68 -2z
m349 -2 c4 -3 5 -10 2 -18 -3 -8 -21 -12 -46 -12 -50 1 -62 -20 -16 -29 43 -9
78 -32 78 -50 0 -30 -38 -55 -82 -55 -51 0 -73 12 -65 33 4 12 13 14 34 8 35
-9 65 -3 60 12 -2 7 -12 13 -23 15 -34 6 -72 24 -77 36 -8 21 16 60 43 67 23
7 75 2 92 -7z m298 -9 c0 -18 -5 -25 -20 -25 -26 0 -40 -29 -40 -84 0 -42 -2
-46 -25 -46 -25 0 -25 1 -25 86 l0 87 33 -5 c17 -3 41 -2 52 3 11 4 21 8 23 8
1 1 2 -10 2 -24z m-470 -70 c0 -84 0 -85 -25 -85 -25 0 -25 1 -25 85 0 84 0
85 25 85 25 0 25 -1 25 -85z m562 28 l25 -58 21 49 c12 27 22 52 22 57 0 5 11
9 25 9 l24 0 -40 -97 c-54 -130 -75 -151 -128 -132 -28 11 -23 32 7 34 43 3
44 18 7 104 -19 46 -35 85 -35 87 0 2 11 4 24 4 19 0 28 -11 48 -57z"/>
<path d="M830 1002 c-18 -15 -22 -25 -16 -46 8 -31 26 -41 61 -32 20 5 25 13
25 39 0 55 -30 71 -70 39z"/>
<path d="M2624 1056 c-3 -8 -4 -27 -2 -43 3 -25 7 -28 36 -26 56 2 78 35 46
67 -19 20 -73 21 -80 2z"/>
<path d="M608 1009 c-19 -11 -24 -54 -9 -77 11 -18 61 -11 75 11 8 13 7 24 -4
45 -17 30 -36 37 -62 21z"/>
<path d="M1026 942 c-11 -18 12 -35 38 -28 36 9 34 36 -3 36 -17 0 -32 -4 -35
-8z"/>
<path d="M1875 940 c-9 -14 3 -30 24 -30 18 0 41 18 41 32 0 12 -58 10 -65 -2z"/>
<path d="M2098 1009 c-36 -21 -16 -79 27 -79 42 0 59 44 29 74 -18 18 -32 20
-56 5z"/>
<path d="M2323 1013 c-7 -2 -13 -11 -13 -19 0 -10 12 -14 40 -14 41 0 49 7 28
28 -12 12 -33 14 -55 5z"/>
<path d="M2862 1008 c-21 -21 -14 -28 29 -28 33 0 40 3 37 18 -4 21 -48 28
-66 10z"/>
<path d="M3070 1000 c-26 -26 -13 -64 24 -68 49 -6 74 38 40 72 -21 21 -40 20
-64 -4z"/>
</g>
</svg>
